<?xml version="1.0" encoding="UTF-8" standalone="no"?>
<!-- Created with Inkscape (http://www.inkscape.org/) -->

<svg
   xmlns:dc="http://purl.org/dc/elements/1.1/"
   xmlns:cc="http://creativecommons.org/ns#"
   xmlns:rdf="http://www.w3.org/1999/02/22-rdf-syntax-ns#"
   xmlns:svg="http://www.w3.org/2000/svg"
   xmlns="http://www.w3.org/2000/svg"
   xmlns:xlink="http://www.w3.org/1999/xlink"
   xmlns:sodipodi="http://sodipodi.sourceforge.net/DTD/sodipodi-0.dtd"
   xmlns:inkscape="http://www.inkscape.org/namespaces/inkscape"
   id="svg40231"
   width="48"
   height="48"
   version="1.0"
   sodipodi:docname="text-x-php.svg"
   inkscape:version="0.92.4 (5da689c313, 2019-01-14)">
  <metadata
     id="metadata133">
    <rdf:RDF>
      <cc:Work
         rdf:about="">
        <dc:format>image/svg+xml</dc:format>
        <dc:type
           rdf:resource="http://purl.org/dc/dcmitype/StillImage" />
        <dc:title></dc:title>
      </cc:Work>
    </rdf:RDF>
  </metadata>
  <sodipodi:namedview
     pagecolor="#ffffff"
     bordercolor="#666666"
     borderopacity="1"
     objecttolerance="10"
     gridtolerance="10"
     guidetolerance="10"
     inkscape:pageopacity="0"
     inkscape:pageshadow="2"
     inkscape:window-width="1600"
     inkscape:window-height="847"
     id="namedview131"
     showgrid="false"
     inkscape:zoom="4.9166667"
     inkscape:cx="24"
     inkscape:cy="19.932203"
     inkscape:window-x="0"
     inkscape:window-y="0"
     inkscape:window-maximized="1"
     inkscape:current-layer="svg40231" />
  <defs
     id="defs40233">
    <linearGradient
       id="linearGradient3333"
       x1="302.86"
       x2="302.86"
       y1="366.65"
       y2="609.51"
       gradientTransform="matrix(0.067325,0,0,0.0147,-0.34114,37.04)"
       gradientUnits="userSpaceOnUse">
      <stop
         id="stop5050"
         style="stop-opacity:0"
         offset="0" />
      <stop
         id="stop5056"
         offset=".5" />
      <stop
         id="stop5052"
         style="stop-opacity:0"
         offset="1" />
    </linearGradient>
    <radialGradient
       id="radialGradient3330"
       cx="605.71"
       cy="486.65"
       r="117.14"
       gradientTransform="matrix(-0.02304,0,0,0.0147,21.623,37.04)"
       gradientUnits="userSpaceOnUse"
       xlink:href="#linearGradient5060" />
    <linearGradient
       id="linearGradient5060">
      <stop
         id="stop5062"
         offset="0" />
      <stop
         id="stop5064"
         style="stop-opacity:0"
         offset="1" />
    </linearGradient>
    <radialGradient
       id="radialGradient3327"
       cx="605.71"
       cy="486.65"
       r="117.14"
       gradientTransform="matrix(0.02304,0,0,0.0147,26.361,37.04)"
       gradientUnits="userSpaceOnUse"
       xlink:href="#linearGradient5060" />
    <linearGradient
       id="linearGradient3324"
       x1="-51.786"
       x2="-51.786"
       y1="50.786"
       y2="2.9062"
       gradientTransform="matrix(0.8075,0,0,0.89483,59.41,-2.9806)"
       gradientUnits="userSpaceOnUse">
      <stop
         id="stop3106"
         style="stop-color:#aaa"
         offset="0" />
      <stop
         id="stop3108"
         style="stop-color:#c8c8c8"
         offset="1" />
    </linearGradient>
    <linearGradient
       id="linearGradient3322"
       x1="25.132"
       x2="25.132"
       y1=".98521"
       y2="47.013"
       gradientTransform="matrix(1,0,0,0.95617,-1.0065e-7,-1.9149)"
       gradientUnits="userSpaceOnUse">
      <stop
         id="stop3602"
         style="stop-color:#f4f4f4"
         offset="0" />
      <stop
         id="stop3604"
         style="stop-color:#dbdbdb"
         offset="1" />
    </linearGradient>
    <radialGradient
       id="radialGradient3319"
       cx="102"
       cy="112.3"
       r="139.56"
       gradientTransform="matrix(0.3617,0,0,-0.39078,0.85106,47.517)"
       gradientUnits="userSpaceOnUse">
      <stop
         id="stop41"
         style="stop-color:#b7b8b9"
         offset="0" />
      <stop
         id="stop47"
         style="stop-color:#ececec"
         offset=".18851" />
      <stop
         id="stop49"
         style="stop-color:#fafafa;stop-opacity:0"
         offset=".25718" />
      <stop
         id="stop51"
         style="stop-color:#fff;stop-opacity:0"
         offset=".30111" />
      <stop
         id="stop53"
         style="stop-color:#fafafa;stop-opacity:0"
         offset=".5313" />
      <stop
         id="stop55"
         style="stop-color:#ebecec;stop-opacity:0"
         offset=".8449" />
      <stop
         id="stop57"
         style="stop-color:#e1e2e3;stop-opacity:0"
         offset="1" />
    </radialGradient>
    <linearGradient
       id="linearGradient3316"
       x1="24"
       x2="24"
       y1="2"
       y2="46.017"
       gradientTransform="matrix(1,0,0,0.97778,0,-0.96667)"
       gradientUnits="userSpaceOnUse">
      <stop
         id="stop3213"
         style="stop-color:#fff"
         offset="0" />
      <stop
         id="stop3215"
         style="stop-color:#fff;stop-opacity:0"
         offset="1" />
    </linearGradient>
    <filter
       id="filter3212"
       x="-.14846"
       y="-.16434"
       width="1.2969"
       height="1.3287"
       color-interpolation-filters="sRGB">
      <feGaussianBlur
         id="feGaussianBlur3214"
         stdDeviation="0.77391625" />
    </filter>
    <linearGradient
       id="linearGradient3312"
       x1="32.892"
       x2="36.358"
       y1="8.059"
       y2="5.4565"
       gradientTransform="matrix(0.9977,0,0,1.0407,0.1638,-1.1058)"
       gradientUnits="userSpaceOnUse">
      <stop
         id="stop8591"
         style="stop-color:#fefefe"
         offset="0" />
      <stop
         id="stop8593"
         style="stop-color:#cbcbcb"
         offset="1" />
    </linearGradient>
    <linearGradient
       id="linearGradient6119"
       x1="22.104"
       x2="22.104"
       y1="40.124"
       y2="10.035"
       gradientTransform="matrix(0.66556,0,0,1.4408,4.5203,-11.849)"
       gradientUnits="userSpaceOnUse"
       xlink:href="#linearGradient5031" />
    <linearGradient
       id="linearGradient6103"
       x1="22.104"
       x2="22.104"
       y1="40.124"
       y2="10.035"
       gradientTransform="matrix(1.0096,0,0,1.4408,-0.54692,-6.0825)"
       gradientUnits="userSpaceOnUse"
       xlink:href="#linearGradient5031" />
    <linearGradient
       id="linearGradient6090"
       x1="22.104"
       x2="22.104"
       y1="40.124"
       y2="10.035"
       gradientTransform="matrix(1.0228,0,0,1.4408,-0.69869,-6.5277)"
       gradientUnits="userSpaceOnUse"
       xlink:href="#linearGradient5031" />
    <linearGradient
       id="linearGradient5988"
       x1="22.104"
       x2="22.104"
       y1="40.124"
       y2="10.035"
       gradientTransform="matrix(0.33421,0,0,1.4207,9.679,-1.238)"
       gradientUnits="userSpaceOnUse"
       xlink:href="#linearGradient5031" />
    <linearGradient
       id="linearGradient5984"
       x1="22.104"
       x2="22.104"
       y1="40.124"
       y2="10.035"
       gradientTransform="matrix(0.48763,0,0,1.4407,7.7773,0.40824)"
       gradientUnits="userSpaceOnUse"
       xlink:href="#linearGradient5031" />
    <linearGradient
       id="linearGradient5980"
       x1="22.104"
       x2="22.104"
       y1="40.124"
       y2="10.035"
       gradientTransform="matrix(0.3695,0,0,1.4205,9.0116,2.7803)"
       gradientUnits="userSpaceOnUse"
       xlink:href="#linearGradient5031" />
    <linearGradient
       id="linearGradient6073"
       x1="22.104"
       x2="22.104"
       y1="40.124"
       y2="10.035"
       gradientTransform="matrix(0.38146,0,0,1.4009,8.4789,5.2584)"
       gradientUnits="userSpaceOnUse"
       xlink:href="#linearGradient5031" />
    <linearGradient
       id="linearGradient6143"
       x1="22.104"
       x2="22.104"
       y1="40.124"
       y2="10.035"
       gradientTransform="matrix(0.40636,0,0,1.4408,8.3144,-5.594)"
       gradientUnits="userSpaceOnUse"
       xlink:href="#linearGradient5031" />
    <linearGradient
       id="linearGradient5031">
      <stop
         id="stop5033"
         style="stop-color:#a3a3a3"
         offset="0" />
      <stop
         id="stop5035"
         style="stop-color:#bababa"
         offset="1" />
    </linearGradient>
    <linearGradient
       id="linearGradient6065"
       x1="22.104"
       x2="22.104"
       y1="40.124"
       y2="10.035"
       gradientTransform="matrix(1.7828,0,0,1.4408,-37.939,-28.441)"
       gradientUnits="userSpaceOnUse"
       xlink:href="#linearGradient5031" />
  </defs>
  <rect
     style="opacity:0.3;fill:url(#linearGradient3333)"
     height="3.5701001"
     width="32.507999"
     y="42.43"
     x="7.7378001"
     id="rect2879" />
  <path
     inkscape:connector-curvature="0"
     style="opacity:0.3;fill:url(#radialGradient3330)"
     d="m 7.7378,42.43 v 3.5699 c -1.1865,0.0067 -2.8684,-0.79982 -2.8684,-1.7852 0,-0.98533 1.324,-1.7847 2.8684,-1.7847 z"
     id="path2881" />
  <path
     inkscape:connector-curvature="0"
     style="opacity:0.3;fill:url(#radialGradient3327)"
     d="m 40.246,42.43 v 3.5699 c 1.1865,0.0067 2.8684,-0.79982 2.8684,-1.7852 0,-0.98533 -1.324,-1.7847 -2.8684,-1.7847 z"
     id="path2883" />
  <path
     inkscape:connector-curvature="0"
     style="fill:url(#linearGradient3322);stroke:url(#linearGradient3324);stroke-width:0.99992001;stroke-linejoin:round"
     d="m 6.5,0.4972 h 24.061 c 1.4069,0.47465 8.9655,5.8822 10.939,9.6264 v 34.379 H 6.5 V 0.4966 Z"
     id="path4160" />
  <path
     inkscape:connector-curvature="0"
     style="fill:url(#radialGradient3319)"
     d="M 7.3617,44 C 7.1624,44 7,43.82454 7,43.60922 V 1.40522 C 7,1.18951 7.1624,1.01444 7.3617,1.01444 c 7.4831,0.10801 15.776,-0.16158 23.25,0.026895 l 10.283,8.866 0.10598,33.702 c 0,0.21532 -0.16204,0.39078 -0.3617,0.39078 h -33.277 z"
     id="path4191" />
  <path
     inkscape:connector-curvature="0"
     style="opacity:0.6;fill:none;stroke:url(#linearGradient3316);stroke-width:0.99992001;stroke-linejoin:round"
     d="M 40.5,10.259 V 43.522 H 7.5 V 1.477 h 22.866"
     id="path2435" />
  <path
     inkscape:connector-curvature="0"
     style="opacity:0.4;fill-rule:evenodd;filter:url(#filter3212)"
     d="m 28.617,0.92126 c 4.2825,0 2.1532,8.4832 2.1532,8.4832 0,0 10.358,-1.8023 10.358,2.8187 0,-2.6097 -11.302,-10.729 -12.511,-11.302 z"
     id="path12038" />
  <path
     inkscape:connector-curvature="0"
     style="fill:url(#linearGradient3312);fill-rule:evenodd"
     d="m 28.617,0.92126 c 3.1865,0 2.3358,7.6619 2.3358,7.6619 0,0 10.175,-0.98105 10.175,3.64 0,-1.1259 0.08591,-1.9322 -0.13378,-2.2836 -1.5783,-2.5242 -8.3955,-8.1884 -10.857,-8.9308 -0.18422,-0.055555 -0.5927,-0.087535 -1.5198,-0.087535 z"
     id="path4474" />
  <path
     inkscape:connector-curvature="0"
     style="fill:#89adc2"
     d="m 11,6 h 2.3698 V 7 H 11 Z"
     id="path4149" />
  <path
     inkscape:connector-curvature="0"
     style="fill:#89adc2"
     d="m 13.693,6 h 2.236 v 1 h -2.236 z"
     id="path4147" />
  <path
     inkscape:connector-curvature="0"
     style="fill:#89adc2"
     d="m 16.251,6 h 1.9684 V 7 H 16.251 Z"
     id="path4145" />
  <path
     inkscape:connector-curvature="0"
     style="fill:#89adc2"
     d="m 18.543,6 h 0.86461 V 7 H 18.543 Z"
     id="path4143" />
  <path
     inkscape:connector-curvature="0"
     style="fill:#89adc2"
     d="m 19.73,6 h 1.935 V 7 H 19.73 Z"
     id="path4141" />
  <path
     inkscape:connector-curvature="0"
     style="fill:#89adc2"
     d="m 21.988,6 h 5.0122 V 7 H 21.988 Z"
     id="path4139" />
  <path
     inkscape:connector-curvature="0"
     style="fill:#89adc2"
     d="m 11,12 h 2.2976 v 1 H 11 Z"
     id="path4131" />
  <path
     inkscape:connector-curvature="0"
     style="fill:#89adc2"
     d="m 13.611,12 h 2.1679 v 1 H 13.611 Z"
     id="path4129" />
  <path
     inkscape:connector-curvature="0"
     style="fill:#89adc2"
     d="m 16.092,12 h 1.9085 v 1 H 16.092 Z"
     id="path4127" />
  <path
     inkscape:connector-curvature="0"
     style="fill:#89adc2"
     d="m 11,8 h 3.7944 V 9 H 11 Z"
     id="path4113" />
  <path
     inkscape:connector-curvature="0"
     style="fill:#89adc2"
     d="m 15.141,8 h 1.8255 V 9 H 15.141 Z"
     id="path4111" />
  <path
     inkscape:connector-curvature="0"
     style="fill:#89adc2"
     d="m 17.313,8 h 0.85835 V 9 H 17.313 Z"
     id="path4109" />
  <path
     inkscape:connector-curvature="0"
     style="fill:#89adc2"
     d="m 18.517,8 h 1.6528 V 9 H 18.517 Z"
     id="path4107" />
  <path
     inkscape:connector-curvature="0"
     style="fill:#89adc2"
     d="m 20.516,8 h 1.6528 V 9 H 20.516 Z"
     id="path4105" />
  <path
     inkscape:connector-curvature="0"
     style="fill:#89adc2"
     d="m 22.516,8 h 2.6545 V 9 H 22.516 Z"
     id="path4103" />
  <path
     inkscape:connector-curvature="0"
     style="fill:#89adc2"
     d="m 25.516,8 h 3.4836 V 9 H 25.516 Z"
     id="path4101" />
  <path
     inkscape:connector-curvature="0"
     style="fill:#89adc2"
     d="m 11,10 h 4.1862 v 1 H 11 Z"
     id="path4095" />
  <path
     inkscape:connector-curvature="0"
     style="fill:#89adc2"
     d="m 15.514,10 h 4.4856 v 1 H 15.514 Z"
     id="path4093" />
  <path
     inkscape:connector-curvature="0"
     style="fill:#b78ed4"
     d="m 11,15 h 3.0668 v 1 H 11 Z"
     id="path4063" />
  <path
     inkscape:connector-curvature="0"
     style="fill:#d48eb3"
     d="m 14.393,15 h 5.6074 v 1 H 14.393 Z"
     id="path4061" />
  <path
     inkscape:connector-curvature="0"
     style="fill:#b78ed4"
     d="m 11,17 h 3.0851 v 1 H 11 Z"
     id="path4049" />
  <path
     inkscape:connector-curvature="0"
     style="fill:#d48eb3"
     d="m 14.435,17 h 5.101 v 1 h -5.101 z"
     id="path4045" />
  <path
     inkscape:connector-curvature="0"
     style="fill:#89adc2"
     d="m 19.899,17 h 1.9042 v 1 H 19.899 Z"
     id="path4043" />
  <path
     inkscape:connector-curvature="0"
     style="fill:#89adc2"
     d="m 22.124,17 h 1.9042 v 1 H 22.124 Z"
     id="path4041" />
  <path
     inkscape:connector-curvature="0"
     style="fill:#89adc2"
     d="m 24.348,17 h 2.7566 v 1 H 24.348 Z"
     id="path4039" />
  <path
     inkscape:connector-curvature="0"
     style="fill:#89adc2"
     d="m 27.426,17 h 0.57448 v 1 H 27.426 Z"
     id="path4037" />
  <path
     inkscape:connector-curvature="0"
     style="fill:#89adc2"
     d="m 20,26 h 1.8669 v 0.99992 H 20 Z"
     id="path4241" />
  <path
     inkscape:connector-curvature="0"
     style="fill:#89adc2"
     d="m 22.178,26 h 4.836 v 0.99992 h -4.836 z"
     id="path4239" />
  <path
     inkscape:connector-curvature="0"
     style="fill:#89adc2"
     d="m 27.326,26 h 3.6742 v 0.99992 H 27.326 Z"
     id="path4237" />
  <path
     inkscape:connector-curvature="0"
     style="fill:#89adc2"
     d="m 20,28 h 2.4446 v 0.98593 H 20 Z"
     id="path4209" />
  <path
     inkscape:connector-curvature="0"
     style="fill:#89adc2"
     d="m 22.777,28 h 4.2748 v 0.98593 H 22.777 Z"
     id="path4207" />
  <path
     inkscape:connector-curvature="0"
     style="fill:#89adc2"
     d="m 27.384,28 h 2.9268 v 0.98593 H 27.384 Z"
     id="path4203" />
  <path
     inkscape:connector-curvature="0"
     style="fill:#89adc2"
     d="m 20,24 h 2.3408 v 1 H 20 Z"
     id="path4177" />
  <path
     inkscape:connector-curvature="0"
     style="fill:#89adc2"
     d="m 25.141,24 h 1.8588 v 1 H 25.141 Z"
     id="path4175" />
  <path
     inkscape:connector-curvature="0"
     style="fill:#89adc2"
     d="m 22.651,24 h 2.1801 v 1 H 22.651 Z"
     id="path4169" />
  <path
     inkscape:connector-curvature="0"
     style="fill:#89adc2"
     d="m 20,30.116 h 1.8821 v 0.97232 H 20 Z"
     id="path4161" />
  <path
     inkscape:connector-curvature="0"
     style="fill:#89adc2"
     d="m 22.199,30.116 h 1.8821 v 0.97232 H 22.199 Z"
     id="path4159" />
  <path
     inkscape:connector-curvature="0"
     style="fill:#89adc2"
     d="m 24.398,30.116 h 2.7246 v 0.97232 H 24.398 Z"
     id="path4157" />
  <path
     inkscape:connector-curvature="0"
     style="fill:#89adc2"
     d="m 27.439,30.116 h 0.56781 v 0.97232 H 27.439 Z"
     id="path4155" />
  <path
     inkscape:connector-curvature="0"
     style="fill:#89adc2"
     d="m 28.324,30.116 h 3.5334 v 0.97232 H 28.324 Z"
     id="path4153" />
  <path
     inkscape:connector-curvature="0"
     style="fill:#94d48e"
     d="m 11,24 h 2.7597 v 0.98609 H 11 Z"
     id="path5302" />
  <path
     inkscape:connector-curvature="0"
     style="fill:url(#linearGradient5988)"
     d="m 14.144,24 h 1.8563 v 0.98609 H 14.144 Z"
     id="path5304" />
  <path
     inkscape:connector-curvature="0"
     style="fill:#94d48e"
     d="m 11,26 h 2.9417 v 0.99992 H 11 Z"
     id="path5310" />
  <path
     inkscape:connector-curvature="0"
     style="fill:url(#linearGradient5984)"
     d="m 14.292,26 h 2.7085 v 0.99992 H 14.292 Z"
     id="path5312" />
  <path
     inkscape:connector-curvature="0"
     style="fill:#94d48e"
     d="m 11,28.014 h 2.535 v 0.98593 H 11 Z"
     id="path5318" />
  <path
     inkscape:connector-curvature="0"
     style="fill:url(#linearGradient5980)"
     d="m 13.948,28.014 h 2.0523 v 0.98593 H 13.948 Z"
     id="path5320" />
  <path
     inkscape:connector-curvature="0"
     style="fill:#94d48e"
     d="m 11,30.144 h 2.2144 v 0.97232 H 11 Z"
     id="path5326" />
  <path
     inkscape:connector-curvature="0"
     style="fill:url(#linearGradient6073)"
     d="m 13.575,30.144 h 2.1188 v 0.97232 H 13.575 Z"
     id="path5328" />
  <path
     inkscape:connector-curvature="0"
     style="fill:#94d48e"
     d="m 11,20 h 2.3589 v 1 H 11 Z"
     id="path4031" />
  <path
     inkscape:connector-curvature="0"
     style="fill:url(#linearGradient6143)"
     d="m 13.743,20 h 2.2571 v 1 H 13.743 Z"
     id="path4029" />
  <path
     inkscape:connector-curvature="0"
     style="fill:url(#linearGradient6065)"
     d="m 11,22 h 1 v 1 h -1 z"
     id="path5685" />
  <text
     xml:space="preserve"
     style="font-style:normal;font-variant:normal;font-weight:600;font-stretch:normal;font-size:9.33333302px;line-height:1.25;font-family:FreeSans;-inkscape-font-specification:'FreeSans Semi-Bold';letter-spacing:0px;word-spacing:0px;fill:#808080;fill-opacity:1;stroke:none;"
     x="13.014648"
     y="40.983047"
     id="text1031"><tspan
       sodipodi:role="line"
       id="tspan1029"
       x="13.014648"
       y="40.983047"
       style="font-style:normal;font-variant:normal;font-weight:bold;font-stretch:normal;font-family:'DejaVu Sans';-inkscape-font-specification:'DejaVu Sans Bold';fill:#808080;fill-opacity:1;">PHP</tspan></text>
</svg>
