<?xml version="1.0" encoding="UTF-8" standalone="no"?>
<!-- Created with Inkscape (http://www.inkscape.org/) -->

<svg
   xmlns:dc="http://purl.org/dc/elements/1.1/"
   xmlns:cc="http://creativecommons.org/ns#"
   xmlns:rdf="http://www.w3.org/1999/02/22-rdf-syntax-ns#"
   xmlns:svg="http://www.w3.org/2000/svg"
   xmlns="http://www.w3.org/2000/svg"
   xmlns:xlink="http://www.w3.org/1999/xlink"
   xmlns:sodipodi="http://sodipodi.sourceforge.net/DTD/sodipodi-0.dtd"
   xmlns:inkscape="http://www.inkscape.org/namespaces/inkscape"
   id="svg3263"
   width="48"
   height="48"
   version="1.0"
   sodipodi:docname="software-properties.svg"
   inkscape:version="0.92.4 (5da689c313, 2019-01-14)">
  <metadata
     id="metadata51">
    <rdf:RDF>
      <cc:Work
         rdf:about="">
        <dc:format>image/svg+xml</dc:format>
        <dc:type
           rdf:resource="http://purl.org/dc/dcmitype/StillImage" />
        <dc:title></dc:title>
      </cc:Work>
    </rdf:RDF>
  </metadata>
  <sodipodi:namedview
     pagecolor="#ffffff"
     bordercolor="#666666"
     borderopacity="1"
     objecttolerance="10"
     gridtolerance="10"
     guidetolerance="10"
     inkscape:pageopacity="0"
     inkscape:pageshadow="2"
     inkscape:window-width="1600"
     inkscape:window-height="847"
     id="namedview49"
     showgrid="false"
     inkscape:zoom="4.9166667"
     inkscape:cx="24"
     inkscape:cy="24"
     inkscape:window-x="0"
     inkscape:window-y="0"
     inkscape:window-maximized="1"
     inkscape:current-layer="svg3263" />
  <defs
     id="defs3265">
    <radialGradient
       id="radialGradient3314"
       cx="5"
       cy="41.5"
       r="5"
       gradientTransform="matrix(.59382 0 0 1.5367 41.141 -103.94)"
       gradientUnits="userSpaceOnUse"
       xlink:href="#linearGradient3681" />
    <linearGradient
       id="linearGradient3312"
       x1="17.554"
       x2="17.554"
       y1="46"
       y2="35"
       gradientTransform="matrix(1.757 0 0 1.397 -17.394 -16.412)"
       gradientUnits="userSpaceOnUse">
      <stop
         id="stop3705"
         style="stop-opacity:0"
         offset="0" />
      <stop
         id="stop3711"
         offset=".5" />
      <stop
         id="stop3707"
         style="stop-opacity:0"
         offset="1" />
    </linearGradient>
    <linearGradient
       id="linearGradient3681">
      <stop
         id="stop3683"
         offset="0" />
      <stop
         id="stop3685"
         style="stop-opacity:0"
         offset="1" />
    </linearGradient>
    <radialGradient
       id="radialGradient3310"
       cx="5"
       cy="41.5"
       r="5"
       gradientTransform="matrix(.59382 0 0 1.5367 -6.6595 -103.94)"
       gradientUnits="userSpaceOnUse"
       xlink:href="#linearGradient3681" />
    <linearGradient
       id="linearGradient3293"
       x1="15.464"
       x2="15.464"
       y1="7.9757"
       y2="45.042"
       gradientUnits="userSpaceOnUse">
      <stop
         id="stop3297"
         style="stop-color:#c9af8b"
         offset="0" />
      <stop
         id="stop3299"
         style="stop-color:#ad8757"
         offset=".23942" />
      <stop
         id="stop3301"
         style="stop-color:#c2a57f"
         offset=".27582" />
      <stop
         id="stop3303"
         style="stop-color:#9d7d53"
         offset="1" />
    </linearGradient>
    <linearGradient
       id="linearGradient3197"
       x1="24.823"
       x2="24.997"
       y1="15.378"
       y2="37.277"
       gradientTransform="matrix(1.2822 0 0 1.5573 -6.0702 -15.291)"
       gradientUnits="userSpaceOnUse">
      <stop
         id="stop3201"
         style="stop-color:#dac197"
         offset="0" />
      <stop
         id="stop3203"
         style="stop-color:#c1a581"
         offset=".23942" />
      <stop
         id="stop3205"
         style="stop-color:#dac197"
         offset=".27582" />
      <stop
         id="stop3207"
         style="stop-color:#a68b60"
         offset="1" />
    </linearGradient>
    <radialGradient
       id="radialGradient3217"
       cx="24"
       cy="31"
       r="20"
       gradientTransform="matrix(1.6547 0 0 .65 -15.714 10.85)"
       gradientUnits="userSpaceOnUse">
      <stop
         id="stop3225"
         style="stop-color:#cbad7a"
         offset="0" />
      <stop
         id="stop3227"
         style="stop-color:#cbae7d;stop-opacity:0"
         offset="1" />
    </radialGradient>
    <linearGradient
       id="linearGradient2659"
       x1="23.452"
       x2="43.007"
       y1="30.555"
       y2="45.934"
       gradientTransform="matrix(1.2822 0 0 1.1747 -6.0702 -5.3032)"
       gradientUnits="userSpaceOnUse">
      <stop
         id="stop4561"
         style="stop-color:#fff;stop-opacity:0"
         offset="0" />
      <stop
         id="stop4563"
         style="stop-color:#fff;stop-opacity:0"
         offset="1" />
    </linearGradient>
    <linearGradient
       id="linearGradient3834"
       x1="26"
       x2="26"
       y1="22"
       y2="8"
       gradientUnits="userSpaceOnUse">
      <stop
         id="stop3829"
         style="stop-color:#fff"
         offset="0" />
      <stop
         id="stop4295"
         style="stop-color:#fff"
         offset=".30213" />
      <stop
         id="stop4293"
         style="stop-color:#fff;stop-opacity:.6902"
         offset=".34361" />
      <stop
         id="stop3832"
         style="stop-color:#fff;stop-opacity:0"
         offset="1" />
    </linearGradient>
    <linearGradient
       id="linearGradient3281"
       x1="44.995"
       x2="3.0052"
       y1="17.5"
       y2="17.5"
       gradientUnits="userSpaceOnUse"
       spreadMethod="reflect">
      <stop
         id="stop3277"
         style="stop-color:#fff;stop-opacity:0"
         offset="0" />
      <stop
         id="stop3283"
         style="stop-color:#fff"
         offset=".16682" />
      <stop
         id="stop3285"
         style="stop-color:#fff"
         offset=".83238" />
      <stop
         id="stop3279"
         style="stop-color:#fff;stop-opacity:0"
         offset="1" />
    </linearGradient>
    <radialGradient
       id="radialGradient2461"
       cx="62.625"
       cy="4.625"
       r="10.625"
       gradientTransform="matrix(1.1294,0,0,0.28235,-58.729,19.694)"
       gradientUnits="userSpaceOnUse">
      <stop
         id="stop8840"
         offset="0" />
      <stop
         id="stop8842"
         style="stop-opacity:0"
         offset="1" />
    </radialGradient>
    <radialGradient
       id="radialGradient2456"
       cx="23.896"
       cy="3.99"
       r="20.396999"
       gradientTransform="matrix(0,1.2316,-1.6257,0,18.487,-28.721)"
       gradientUnits="userSpaceOnUse">
      <stop
         id="stop2778"
         style="stop-color:#8badea"
         offset="0" />
      <stop
         id="stop2780"
         style="stop-color:#6396cd"
         offset=".26238" />
      <stop
         id="stop2782"
         style="stop-color:#3b7caf"
         offset=".66094" />
      <stop
         id="stop2784"
         style="stop-color:#194c70"
         offset="1" />
    </radialGradient>
    <linearGradient
       id="linearGradient2458"
       x1="18.379"
       x2="18.379"
       y1="44.98"
       y2="3.0816"
       gradientTransform="matrix(0.51604,0,0,0.51604,-0.38499,-0.38499)"
       gradientUnits="userSpaceOnUse">
      <stop
         id="stop2788"
         style="stop-color:#1f4b6a"
         offset="0" />
      <stop
         id="stop2790"
         style="stop-color:#4083c2"
         offset="1" />
    </linearGradient>
    <linearGradient
       id="linearGradient2453"
       x1="63.396999"
       x2="63.396999"
       y1="-12.489"
       y2="5.4675999"
       gradientTransform="matrix(1.0863,0,0,1.0862,-55.567,15.814)"
       gradientUnits="userSpaceOnUse">
      <stop
         id="stop4875"
         style="stop-color:#fff"
         offset="0" />
      <stop
         id="stop4877"
         style="stop-color:#fff;stop-opacity:0"
         offset="1" />
    </linearGradient>
  </defs>
  <g
     id="layer1">
    <g
       id="g3305"
       transform="matrix(.99266 0 0 .97615 .27519 1.293)"
       style="opacity:.4">
      <rect
         id="rect2484"
         transform="scale(-1)"
         x="-3.6904"
         y="-47.848"
         width="2.9602"
         height="15.367"
         style="fill:url(#radialGradient3310);opacity:1" />
      <rect
         id="rect2486"
         x="3.6904"
         y="32.482"
         width="40.412"
         height="15.367"
         style="fill:url(#linearGradient3312);opacity:1" />
      <rect
         id="rect3444"
         transform="scale(1,-1)"
         x="44.11"
         y="-47.848"
         width="2.9602"
         height="15.367"
         style="fill:url(#radialGradient3314);opacity:1" />
    </g>
    <path
       id="path2488"
       d="m9.0107 8.5h29.498c1.722 0 2.4969-0.28655 2.9916 1l3.0017 8v25.674c0 1.5533 0.10293 1.316-1.6191 1.316h-37.765c-1.722 0-1.6191 0.23733-1.6191-1.316v-25.674l3.0017-8c0.48083-1.2606 0.78873-1 2.5107-1z"
       style="display:block;fill:url(#linearGradient3197);stroke-linecap:round;stroke-width:.9942;stroke:url(#linearGradient3293)" />
    <rect
       id="rect3209"
       x="4"
       y="18"
       width="40"
       height="26"
       style="fill-rule:evenodd;fill:url(#radialGradient3217)" />
    <path
       id="path2490"
       d="m9.9482 9.5129h27.653c1.6143 0 2.6134 0.55654 3.2895 2.086l2.3289 6.4197v23.145c0 1.4607-0.81876 2.1961-2.4331 2.1961h-33.733c-1.6143 0-2.2728-0.80883-2.2728-2.2695v-23.071l2.2538-6.5574c0.45076-1.1854 1.2996-1.9484 2.9139-1.9484z"
       style="display:block;fill:none;opacity:.50549;stroke-width:.74212;stroke:url(#linearGradient2659)" />
    <path
       id="rect3326"
       d="m22 8h4v14h-1.1812-1.2094-0.97358-0.63585v-14z"
       style="fill:url(#linearGradient3834);opacity:.4" />
    <path
       id="path3273"
       d="m3.5052 17.5h40.99"
       style="fill:none;opacity:.3;stroke-linecap:square;stroke-width:1px;stroke:url(#linearGradient3281)" />
  </g>
  <g
     transform="translate(24,24)"
     id="layer1-3">
    <path
       inkscape:connector-curvature="0"
       id="path8836"
       d="m 24,21 c 0,1.6569 -5.3726,3 -12,3 -6.6274,0 -12,-1.3431 -12,-3 0,-1.6569 5.3726,-3 12,-3 6.6274,0 12,1.3431 12,3 z"
       style="opacity:0.3;fill:url(#radialGradient2461);fill-rule:evenodd" />
    <path
       inkscape:connector-curvature="0"
       id="path2555"
       d="m 12,1.5018 c -5.7926,0 -10.498,4.7057 -10.498,10.498 0,5.7926 4.7057,10.498 10.498,10.498 5.7926,0 10.498,-4.7057 10.498,-10.498 C 22.498,6.2072 17.7923,1.5018 12,1.5018 Z"
       style="fill:url(#radialGradient2456);stroke:url(#linearGradient2458);stroke-width:1.00370002;stroke-linecap:round;stroke-linejoin:round" />
    <path
       inkscape:connector-curvature="0"
       id="path2463"
       d="m 21.5,12 c 0,5.2469 -4.2536,9.5003 -9.4999,9.5003 C 6.7533,21.5003 2.5,17.2468 2.5,12 2.5,6.7534 6.7534,2.5003 12.0001,2.5003 17.2464,2.5003 21.5,6.7533 21.5,12 Z"
       style="opacity:0.4;fill:none;stroke:url(#linearGradient2453)" />
    <path
       inkscape:connector-curvature="0"
       id="text3482"
       d="m 9,10.851 c 0.13386,0.36388 0.28452,0.65884 0.60545,0.25553 0.39788,-0.23673 1.731,-1.2744 1.5976,-0.25798 -0.42688,1.8808 -0.94648,3.7418 -1.3438,5.6285 -0.41543,1.033 0.52793,1.9674 1.5129,1.2956 1.0469,-0.43158 1.9478,-1.1346 2.8681,-1.7794 -0.12558,-0.30796 -0.20927,-0.75035 -0.55625,-0.34761 -0.4556,0.20679 -1.4507,1.1817 -1.6355,0.37762 0.3827,-2.0366 1.0918,-3.9978 1.545,-6.0181 0.4171,-0.92895 -0.2641,-2.1027 -1.2838,-1.3343 -1.2216,0.53205 -2.2432,1.4012 -3.3097,2.1802 z m 4.5338,-6.8497 c -1.2464,-0.066145 -1.8981,1.9431 -0.71361,2.4929 0.96093,0.39409 2.0072,-0.59147 1.7725,-1.5763 -0.07285,-0.51279 -0.53324,-0.93388 -1.0588,-0.91663 h -10e-7 z"
       style="opacity:0.2" />
    <path
       inkscape:connector-curvature="0"
       id="path3536"
       d="m 9,11.851 c 0.13386,0.36388 0.28452,0.65884 0.60545,0.25553 0.39788,-0.23673 1.731,-1.2744 1.5976,-0.25798 -0.42688,1.8808 -0.94648,3.7418 -1.3438,5.6285 -0.41543,1.033 0.52793,1.9674 1.5129,1.2956 1.0469,-0.43158 1.9478,-1.1346 2.8681,-1.7794 -0.12558,-0.30796 -0.20927,-0.75035 -0.55625,-0.34761 -0.4556,0.20679 -1.4507,1.1817 -1.6355,0.37762 0.3827,-2.0366 1.0918,-3.9978 1.545,-6.0181 0.4171,-0.92895 -0.2641,-2.1027 -1.2838,-1.3343 -1.2216,0.53205 -2.2432,1.4012 -3.3097,2.1802 z m 4.5338,-6.8497 c -1.2464,-0.066145 -1.8981,1.9431 -0.71361,2.4929 0.96093,0.39409 2.0072,-0.59147 1.7725,-1.5763 -0.07285,-0.51279 -0.53324,-0.93388 -1.0588,-0.91663 h -10e-7 z"
       style="fill:#ffffff" />
  </g>
</svg>
